<svg width="164" height="45" viewBox="0 0 164 45" fill="none" xmlns="http://www.w3.org/2000/svg">
<g clip-path="url(#clip0)">
<path d="M13.5197 16.136V11.2281H0V33.5003H5.09116V25.3204H13.3626V20.4125H5.09116V16.136H13.5197Z" fill="white"/>
<path d="M28.983 25.3302C30.1951 24.7353 31.2198 23.8177 31.9442 22.6782C32.6687 21.5387 33.0649 20.2214 33.0893 18.8714C33.0914 17.8679 32.8954 16.8739 32.5123 15.9464C32.1293 15.0189 31.5669 14.1761 30.8573 13.4666C30.1477 12.757 29.305 12.1946 28.3775 11.8116C27.45 11.4285 26.456 11.2325 25.4525 11.2346H16.543V33.5068H21.6342V26.1875H24.0521L28.2533 33.5068H33.724L28.983 25.3302ZM25.4525 21.7311H21.6342V16.0084H25.4525C26.8529 16.0084 27.9981 17.2485 27.9981 18.8714C27.9981 20.4943 26.8529 21.7343 25.4525 21.7343V21.7311Z" fill="white"/>
<path d="M41.2004 28.6054V24.6791H49.1545V19.8268H41.2004V16.136H49.9496V11.2281H36.1092V33.5003H50.1099V28.5923L41.2004 28.6054Z" fill="white"/>
<path d="M58.064 28.6054V24.6791H66.0181V19.8268H58.064V16.136H66.8132V11.2281H52.9729V33.5003H66.9735V28.5923L58.064 28.6054Z" fill="white"/>
<path d="M80.0188 22.0845L87.5247 11.2347H81.7366L74.9276 20.9066V11.2347H69.8365V33.5068H74.9276V23.1969L82.0539 33.5068H87.8453L80.0188 22.0845Z" fill="white"/>
<path d="M89.7529 11.2347V33.5068H94.8441V11.2347H89.7529Z" fill="white"/>
<path d="M109.283 28.9883C105.337 28.9883 102.792 26.3478 102.792 22.3691C102.792 18.3904 105.357 15.7532 109.283 15.7532C111.541 15.7532 113.448 16.7708 114.437 18.4886L118.827 15.943C117.809 14.341 116.397 13.0264 114.726 12.1243C113.055 11.2223 111.182 10.7628 109.283 10.7897C102.569 10.7897 97.7005 15.8154 97.7005 22.3691C97.7005 28.9228 102.569 33.9518 109.283 33.9518C113.353 33.9518 116.917 31.9461 118.827 28.7985L114.443 26.2627C113.488 27.9707 111.547 28.9883 109.283 28.9883Z" fill="white"/>
<path d="M131.402 22.0845L138.911 11.2347H133.119L126.297 20.9066V11.2347H121.219V33.5068H126.297V23.1969L133.424 33.5068H139.215L131.402 22.0845Z" fill="white"/>
<path d="M148.111 34.1154L139.889 22.2873L147.8 10.8846L151.318 5.81305H145.566L141.967 10.8846L133.908 22.2873L142.33 34.1154L145.929 39.1869H151.648L148.111 34.1154Z" fill="white"/>
<path d="M160.473 39.1869L156.946 34.1154L148.723 22.2873L163.669 0.741516H157.989L142.742 22.2873L151.164 34.1154L154.763 39.1869L158.362 44.2585H164.003L160.473 39.1869Z" fill="white"/>
</g>
<defs>
<clipPath id="clip0">
<rect width="164" height="43.5169" fill="white" transform="translate(0 0.741516)"/>
</clipPath>
</defs>
</svg>
