<svg width="125" height="34" viewBox="0 0 125 34" fill="none" xmlns="http://www.w3.org/2000/svg">
<g clip-path="url(#clip0)">
<path d="M10.3047 12.1494V8.40863H0V25.3844H3.88045V19.1497H10.1849V15.4089H3.88045V12.1494H10.3047Z" fill="#2E2F62"/>
<path d="M22.0907 19.1572C23.0146 18.7037 23.7956 18.0043 24.3478 17.1358C24.8999 16.2673 25.2019 15.2633 25.2205 14.2343C25.2221 13.4694 25.0727 12.7118 24.7807 12.0048C24.4888 11.2979 24.0601 10.6556 23.5193 10.1148C22.9785 9.57393 22.3361 9.14525 21.6292 8.85331C20.9223 8.56138 20.1646 8.41194 19.3998 8.41359H12.609V25.3893H16.4894V19.8106H18.3324L21.5345 25.3893H25.7043L22.0907 19.1572ZM19.3998 16.4139H16.4894V12.0521H19.3998C20.4672 12.0521 21.34 12.9973 21.34 14.2343C21.34 15.4712 20.4672 16.4164 19.3998 16.4164V16.4139Z" fill="#2E2F62"/>
<path d="M31.4027 21.6535V18.6609H37.4653V14.9625H31.4027V12.1494H38.0713V8.40863H27.5223V25.3844H38.1935V21.6436L31.4027 21.6535Z" fill="#2E2F62"/>
<path d="M44.2561 21.6535V18.6609H50.3187V14.9625H44.2561V12.1494H50.9247V8.40863H40.3757V25.3844H51.0469V21.6436L44.2561 21.6535Z" fill="#2E2F62"/>
<path d="M60.99 16.6832L66.7109 8.41357H62.2992L57.1095 15.7854V8.41357H53.229V25.3893H57.1095V17.5311L62.5411 25.3893H66.9553L60.99 16.6832Z" fill="#2E2F62"/>
<path d="M68.4092 8.41357V25.3893H72.2897V8.41357H68.4092Z" fill="#2E2F62"/>
<path d="M83.2951 21.9453C80.2875 21.9453 78.3473 19.9328 78.3473 16.9002C78.3473 13.8677 80.3025 11.8577 83.2951 11.8577C85.0159 11.8577 86.4698 12.6332 87.223 13.9425L90.5697 12.0023C89.7931 10.7812 88.7169 9.77925 87.4436 9.09172C86.1702 8.40418 84.7421 8.05399 83.2951 8.07446C78.1777 8.07446 74.4668 11.905 74.4668 16.9002C74.4668 21.8955 78.1777 25.7285 83.2951 25.7285C86.3975 25.7285 89.1133 24.1998 90.5697 21.8007L87.2279 19.8679C86.4997 21.1697 85.0209 21.9453 83.2951 21.9453Z" fill="#2E2F62"/>
<path d="M100.154 16.6832L105.877 8.41357H101.463L96.2632 15.7854V8.41357H92.3927V25.3893H96.2632V17.5311L101.695 25.3893H106.109L100.154 16.6832Z" fill="#2E2F62"/>
<path d="M112.89 25.8532L106.623 16.8379L112.653 8.14674L115.334 4.28125H110.95L108.206 8.14674L102.064 16.8379L108.483 25.8532L111.226 29.7187H115.586L112.89 25.8532Z" fill="#2E2F62"/>
<path d="M122.312 29.7187L119.623 25.8532L113.356 16.8379L124.748 0.415771H120.419L108.797 16.8379L115.217 25.8532L117.96 29.7187L120.703 33.5842H125.002L122.312 29.7187Z" fill="#F7004A"/>
</g>
<defs>
<clipPath id="clip0">
<rect width="125" height="33.1684" fill="white" transform="translate(0 0.415771)"/>
</clipPath>
</defs>
</svg>
